<?xml version="1.0" encoding="UTF-8" standalone="no"?>
<svg width="80px" height="80px" viewBox="0 0 80 80" version="1.1" xmlns="http://www.w3.org/2000/svg" xmlns:xlink="http://www.w3.org/1999/xlink">
    <!-- Generator: Sketch Beta 3.8 (29681) - http://www.bohemiancoding.com/sketch -->
    <title>Shape</title>
    <desc>Created with Sketch Beta.</desc>
    <defs></defs>
    <g id="Page-1" stroke="none" stroke-width="1" fill="none" fill-rule="evenodd">
        <g id="playboy" transform="translate(-680.000000, -260.000000)" fill="#7ED321">
            <path d="M720,260 C697.910714,260 680,277.910714 680,300 C680,322.089286 697.910714,340 720,340 C742.089286,340 760,322.089286 760,300 C760,277.910714 742.089286,260 720,260 L720,260 Z M740.517857,286.625 L715.678571,318.5 C715.482143,318.696429 715.160714,319.125 714.767857,319.125 C714.357143,319.125 714.089286,318.839286 713.857143,318.607143 C713.625,318.375 699.767857,305.053571 699.767857,305.053571 L699.5,304.785714 C699.392857,304.625 699.303571,304.428571 699.303571,304.214286 C699.303571,304 699.392857,303.803571 699.5,303.642857 C699.571429,303.571429 699.625,303.517857 699.696429,303.428571 C701.071429,301.982143 703.857143,299.053571 704.035714,298.875 C704.267857,298.642857 704.464286,298.339286 704.892857,298.339286 C705.339286,298.339286 705.625,298.714286 705.839286,298.928571 C706.053571,299.142857 713.875,306.660714 713.875,306.660714 L733.75,281.125 C733.928571,280.982143 734.142857,280.875 734.375,280.875 C734.607143,280.875 734.821429,280.964286 735,281.107143 L740.464286,285.410714 C740.607143,285.589286 740.696429,285.803571 740.696429,286.035714 C740.714286,286.267857 740.625,286.464286 740.517857,286.625 L740.517857,286.625 Z" id="Shape"></path>
        </g>
    </g>
</svg>